<svg version="1.1" xmlns="http://www.w3.org/2000/svg" xmlns:xlink="http://www.w3.org/1999/xlink" width="362.4981" height="362.4981" viewBox="0,0,362.4981,362.4981"><g transform="translate(-138.75095,1.24905)"><g data-paper-data="{&quot;isPaintingLayer&quot;:true}" fill="none" fill-rule="nonzero" stroke-linecap="butt" stroke-linejoin="miter" stroke-miterlimit="10" stroke-dasharray="" stroke-dashoffset="0" style="mix-blend-mode: normal"><path d="M262.33213,157.21832c6.34002,-16.02943 19.18089,-28.82117 35.32703,-35.05915" stroke="#ff0095" stroke-width="25"/><path d="M295.33174,123.11357c15.81759,-6.85144 33.94257,-6.8167 49.77054,0.18942" stroke="#ff0000" stroke-width="25"/><path d="M342.78169,122.33213c16.02943,6.34002 28.82116,19.18089 35.05915,35.32703" stroke="#ffa000" stroke-width="25"/><path d="M376.88643,155.33174c6.85145,15.81759 6.8167,33.94257 -0.18942,49.77054" stroke="#ffea00" stroke-width="25"/><path d="M377.66788,202.78169c-6.34002,16.02943 -19.18089,28.82117 -35.32703,35.05915" stroke="#34ff00" stroke-width="25"/><path d="M344.66826,236.88643c-15.81759,6.85145 -33.94257,6.8167 -49.77054,-0.18942" stroke="#00fffe" stroke-width="25"/><path d="M297.21832,237.66788c-16.02943,-6.34002 -28.82117,-19.18089 -35.05915,-35.32703" stroke="#0060ff" stroke-width="25"/><path d="M263.11357,204.66826c-6.85145,-15.81759 -6.8167,-33.94258 0.18942,-49.77054" stroke="#c800ff" stroke-width="25"/><path d="M138.75095,180c0,-100.10109 81.14796,-181.24905 181.24905,-181.24905c100.10109,0 181.24905,81.14796 181.24905,181.24905c0,100.10109 -81.14796,181.24905 -181.24905,181.24905c-100.10109,0 -181.24905,-81.14796 -181.24905,-181.24905z" stroke="none" stroke-width="0"/></g></g></svg>